<?xml version="1.0" encoding="UTF-8"?>
<svg xmlns="http://www.w3.org/2000/svg" xmlns:xlink="http://www.w3.org/1999/xlink" width="854" height="480" viewBox="0 0 854 480">
<defs>
<g>
<g id="glyph-0-0">
<path d="M 9.078125 -8.101562 L 9.078125 -7.519531 L 8.046875 -7.519531 L 8.046875 -0.574219 L 9.078125 -0.574219 L 9.078125 0 L 5.914062 0 L 5.914062 -0.574219 L 6.945312 -0.574219 L 6.945312 -7.433594 L 2.746094 -7.433594 L 2.746094 -0.574219 L 3.777344 -0.574219 L 3.777344 0 L 0.613281 0 L 0.613281 -0.574219 L 1.644531 -0.574219 L 1.644531 -7.519531 L 0.613281 -7.519531 L 0.613281 -8.101562 Z "/>
</g>
<g id="glyph-0-1">
<path d="M 2.277344 -3.167969 L 2.277344 -2.597656 C 2.277344 -1.902344 2.410156 -1.375 2.675781 -1.011719 C 2.941406 -0.648438 3.328125 -0.464844 3.835938 -0.464844 C 4.34375 -0.464844 4.730469 -0.671875 4.992188 -1.078125 C 5.257812 -1.488281 5.386719 -2.089844 5.386719 -2.886719 C 5.386719 -3.683594 5.257812 -4.289062 4.992188 -4.691406 C 4.730469 -5.097656 4.34375 -5.300781 3.835938 -5.300781 C 3.328125 -5.300781 2.941406 -5.117188 2.675781 -4.753906 C 2.410156 -4.386719 2.277344 -3.859375 2.277344 -3.167969 M 1.28125 -5.1875 L 0.320312 -5.1875 L 0.320312 -5.765625 L 2.277344 -5.765625 L 2.277344 -4.867188 C 2.472656 -5.226562 2.722656 -5.496094 3.023438 -5.667969 C 3.328125 -5.839844 3.699219 -5.925781 4.144531 -5.925781 C 4.855469 -5.925781 5.433594 -5.644531 5.878906 -5.082031 C 6.328125 -4.523438 6.554688 -3.789062 6.554688 -2.886719 C 6.554688 -1.980469 6.328125 -1.25 5.878906 -0.6875 C 5.433594 -0.125 4.855469 0.15625 4.144531 0.15625 C 3.699219 0.15625 3.328125 0.0703125 3.023438 -0.101562 C 2.722656 -0.273438 2.472656 -0.539062 2.277344 -0.902344 L 2.277344 1.730469 L 3.222656 1.730469 L 3.222656 2.3125 L 0.320312 2.3125 L 0.320312 1.730469 L 1.28125 1.730469 Z "/>
</g>
<g id="glyph-0-2">
<path d="M 3.34375 -0.378906 C 3.878906 -0.378906 4.28125 -0.589844 4.554688 -1.015625 C 4.828125 -1.4375 4.964844 -2.0625 4.964844 -2.886719 C 4.964844 -3.710938 4.828125 -4.332031 4.554688 -4.753906 C 4.28125 -5.175781 3.878906 -5.386719 3.34375 -5.386719 C 2.804688 -5.386719 2.402344 -5.175781 2.128906 -4.753906 C 1.855469 -4.332031 1.71875 -3.710938 1.71875 -2.886719 C 1.71875 -2.0625 1.855469 -1.4375 2.132812 -1.015625 C 2.40625 -0.589844 2.808594 -0.378906 3.34375 -0.378906 M 3.34375 0.15625 C 2.503906 0.15625 1.828125 -0.121094 1.316406 -0.675781 C 0.808594 -1.230469 0.554688 -1.96875 0.554688 -2.886719 C 0.554688 -3.804688 0.808594 -4.539062 1.316406 -5.09375 C 1.824219 -5.648438 2.5 -5.925781 3.34375 -5.925781 C 4.183594 -5.925781 4.859375 -5.648438 5.367188 -5.09375 C 5.875 -4.539062 6.128906 -3.804688 6.128906 -2.886719 C 6.128906 -1.96875 5.875 -1.230469 5.367188 -0.675781 C 4.859375 -0.121094 4.183594 0.15625 3.34375 0.15625 Z "/>
</g>
<g id="glyph-0-3">
<path d="M 0.378906 0 L 0.378906 -0.574219 L 1.28125 -0.574219 L 1.28125 -5.191406 L 0.378906 -5.191406 L 0.378906 -5.765625 L 3.179688 -5.765625 L 3.179688 -5.191406 L 2.277344 -5.191406 L 2.277344 -1.882812 L 4.921875 -4.675781 L 4.921875 -5.191406 L 4.019531 -5.191406 L 4.019531 -5.765625 L 6.820312 -5.765625 L 6.820312 -5.191406 L 5.917969 -5.191406 L 5.917969 -0.574219 L 6.820312 -0.574219 L 6.820312 0 L 4.019531 0 L 4.019531 -0.574219 L 4.921875 -0.574219 L 4.921875 -3.796875 L 2.277344 -1.003906 L 2.277344 -0.574219 L 3.179688 -0.574219 L 3.179688 0 Z "/>
</g>
<g id="glyph-0-4">
<path d="M 0.710938 -5.523438 C 1.34375 -5.789062 2.074219 -5.925781 2.902344 -5.925781 C 4.429688 -5.925781 5.191406 -5.414062 5.191406 -4.394531 C 5.191406 -3.824219 5 -3.457031 4.613281 -3.296875 C 4.230469 -3.140625 3.992188 -3.054688 3.902344 -3.050781 C 4.4375 -2.976562 4.835938 -2.839844 5.105469 -2.632812 C 5.371094 -2.429688 5.507812 -2.054688 5.507812 -1.507812 C 5.507812 -0.964844 5.261719 -0.550781 4.769531 -0.269531 C 4.28125 0.015625 3.671875 0.15625 2.941406 0.15625 C 2.273438 0.15625 1.722656 0.0078125 1.289062 -0.296875 C 0.851562 -0.597656 0.585938 -0.96875 0.488281 -1.40625 L 1.292969 -1.40625 C 1.53125 -0.722656 2.089844 -0.378906 2.972656 -0.378906 C 3.417969 -0.378906 3.785156 -0.496094 4.078125 -0.722656 C 4.371094 -0.953125 4.519531 -1.230469 4.519531 -1.550781 C 4.519531 -1.878906 4.359375 -2.15625 4.042969 -2.390625 C 3.726562 -2.625 3.253906 -2.738281 2.625 -2.738281 L 2.125 -2.738281 L 2.125 -3.316406 L 2.386719 -3.316406 C 3.019531 -3.316406 3.488281 -3.40625 3.789062 -3.589844 C 4.089844 -3.777344 4.242188 -4.011719 4.242188 -4.300781 C 4.242188 -4.632812 4.113281 -4.886719 3.855469 -5.074219 C 3.601562 -5.257812 3.253906 -5.347656 2.816406 -5.347656 C 1.882812 -5.347656 1.375 -5.039062 1.296875 -4.421875 L 0.710938 -4.421875 Z "/>
</g>
<g id="glyph-0-5">
<path d="M 3.589844 -5.765625 C 4.851562 -5.765625 5.480469 -5.292969 5.480469 -4.339844 C 5.480469 -4 5.367188 -3.726562 5.148438 -3.523438 C 4.929688 -3.320312 4.605469 -3.195312 4.183594 -3.148438 C 5.253906 -3.019531 5.789062 -2.527344 5.789062 -1.671875 C 5.789062 -1.097656 5.59375 -0.679688 5.207031 -0.40625 C 4.820312 -0.136719 4.21875 0 3.394531 0 L 0.394531 0 L 0.394531 -0.574219 L 1.300781 -0.574219 L 1.300781 -5.191406 L 0.394531 -5.191406 L 0.394531 -5.765625 L 3.589844 -5.765625 M 2.300781 -3.484375 L 3.21875 -3.484375 C 3.601562 -3.484375 3.894531 -3.5625 4.105469 -3.722656 C 4.3125 -3.886719 4.417969 -4.089844 4.417969 -4.335938 C 4.417969 -4.582031 4.3125 -4.785156 4.101562 -4.949219 C 3.890625 -5.109375 3.597656 -5.191406 3.21875 -5.191406 L 2.300781 -5.191406 L 2.300781 -3.484375 M 2.300781 -0.574219 L 3.40625 -0.574219 C 3.832031 -0.574219 4.15625 -0.675781 4.386719 -0.878906 C 4.617188 -1.082031 4.730469 -1.347656 4.730469 -1.675781 C 4.730469 -2.003906 4.617188 -2.269531 4.390625 -2.46875 C 4.160156 -2.667969 3.832031 -2.765625 3.40625 -2.765625 L 2.300781 -2.765625 Z "/>
</g>
<g id="glyph-0-6">
<path d="M 2.414062 -5.109375 L 2.414062 -4.167969 C 2.414062 -3.3125 2.367188 -2.617188 2.269531 -2.078125 C 2.171875 -1.539062 2.078125 -1.09375 1.992188 -0.742188 C 1.984375 -0.714844 1.988281 -0.695312 2.007812 -0.683594 C 2.023438 -0.671875 2.078125 -0.667969 2.171875 -0.667969 L 4.492188 -0.667969 L 4.492188 -5.109375 L 2.414062 -5.109375 M 1.746094 -5.191406 L 0.847656 -5.191406 L 0.847656 -5.765625 L 6.386719 -5.765625 L 6.386719 -5.191406 L 5.492188 -5.191406 L 5.492188 -0.574219 L 6.386719 -0.574219 L 6.386719 1.535156 L 5.820312 1.535156 L 5.734375 0.769531 C 5.675781 0.257812 5.464844 0 5.105469 0 L 1.683594 0 C 1.320312 0 1.109375 0.257812 1.050781 0.769531 L 0.964844 1.535156 L 0.402344 1.535156 L 0.402344 -0.574219 L 0.707031 -0.574219 C 0.972656 -0.574219 1.191406 -0.792969 1.363281 -1.226562 C 1.53125 -1.660156 1.636719 -2.105469 1.683594 -2.5625 C 1.726562 -3.019531 1.746094 -3.558594 1.746094 -4.171875 Z "/>
</g>
<g id="glyph-0-7">
<path d="M 5.917969 -5.191406 L 5.917969 -0.574219 L 6.820312 -0.574219 L 6.820312 0 L 4.019531 0 L 4.019531 -0.574219 L 4.921875 -0.574219 L 4.921875 -2.800781 L 2.277344 -2.800781 L 2.277344 -0.574219 L 3.179688 -0.574219 L 3.179688 0 L 0.378906 0 L 0.378906 -0.574219 L 1.28125 -0.574219 L 1.28125 -5.191406 L 0.378906 -5.191406 L 0.378906 -5.765625 L 3.179688 -5.765625 L 3.179688 -5.191406 L 2.277344 -5.191406 L 2.277344 -3.472656 L 4.921875 -3.472656 L 4.921875 -5.191406 L 4.019531 -5.191406 L 4.019531 -5.765625 L 6.820312 -5.765625 L 6.820312 -5.191406 Z "/>
</g>
<g id="glyph-0-8">
<path d="M 4.421875 -1.8125 L 4.421875 -3.03125 L 3.136719 -3.03125 C 2.640625 -3.03125 2.269531 -2.925781 2.027344 -2.710938 C 1.785156 -2.5 1.664062 -2.171875 1.664062 -1.730469 C 1.664062 -1.328125 1.789062 -1.011719 2.035156 -0.777344 C 2.28125 -0.539062 2.613281 -0.421875 3.03125 -0.421875 C 3.449219 -0.421875 3.785156 -0.550781 4.039062 -0.808594 C 4.292969 -1.066406 4.421875 -1.398438 4.421875 -1.8125 M 5.417969 -3.601562 L 5.417969 -0.574219 L 6.308594 -0.574219 L 6.308594 0 L 4.421875 0 L 4.421875 -0.625 C 4.199219 -0.355469 3.945312 -0.160156 3.65625 -0.03125 C 3.367188 0.09375 3.027344 0.15625 2.640625 0.15625 C 2 0.15625 1.492188 -0.0117188 1.117188 -0.351562 C 0.742188 -0.691406 0.554688 -1.152344 0.554688 -1.730469 C 0.554688 -2.328125 0.769531 -2.789062 1.199219 -3.121094 C 1.628906 -3.449219 2.238281 -3.613281 3.023438 -3.613281 L 4.421875 -3.613281 L 4.421875 -4.007812 C 4.421875 -4.445312 4.289062 -4.785156 4.023438 -5.027344 C 3.757812 -5.265625 3.382812 -5.386719 2.902344 -5.386719 C 2.503906 -5.386719 2.1875 -5.296875 1.953125 -5.117188 C 1.71875 -4.933594 1.570312 -4.667969 1.511719 -4.3125 L 1 -4.3125 L 1 -5.480469 C 1.34375 -5.628906 1.683594 -5.738281 2.011719 -5.8125 C 2.335938 -5.886719 2.65625 -5.925781 2.96875 -5.925781 C 3.765625 -5.925781 4.375 -5.726562 4.792969 -5.332031 C 5.210938 -4.933594 5.417969 -4.359375 5.417969 -3.601562 Z "/>
</g>
<g id="glyph-0-9">
<path d="M 4.464844 -3.234375 L 4.464844 -5.191406 L 3.199219 -5.191406 C 2.808594 -5.191406 2.523438 -5.101562 2.339844 -4.917969 C 2.152344 -4.738281 2.0625 -4.503906 2.0625 -4.21875 C 2.0625 -3.929688 2.152344 -3.695312 2.335938 -3.511719 C 2.519531 -3.324219 2.804688 -3.234375 3.199219 -3.234375 L 4.464844 -3.234375 M 6.421875 -5.765625 L 6.421875 -5.191406 L 5.464844 -5.191406 L 5.464844 -0.574219 L 6.363281 -0.574219 L 6.363281 0 L 3.597656 0 L 3.597656 -0.574219 L 4.464844 -0.574219 L 4.464844 -2.675781 L 3.574219 -2.675781 L 1.910156 0 L 0.351562 0 L 0.351562 -0.574219 L 1.148438 -0.574219 L 2.5 -2.746094 C 2.246094 -2.8125 1.925781 -2.964844 1.550781 -3.195312 C 1.175781 -3.429688 0.988281 -3.800781 0.988281 -4.316406 C 0.988281 -4.746094 1.140625 -5.097656 1.445312 -5.363281 C 1.75 -5.632812 2.183594 -5.765625 2.746094 -5.765625 Z "/>
</g>
</g>
</defs>
<g fill="rgb(100%, 100%, 100%)" fill-opacity="1">
<use xlink:href="#glyph-0-0" x="30" y="30.3125"/>
<use xlink:href="#glyph-0-1" x="40" y="30.3125"/>
<use xlink:href="#glyph-0-2" x="47" y="30.3125"/>
<use xlink:href="#glyph-0-3" x="54" y="30.3125"/>
<use xlink:href="#glyph-0-4" x="61" y="30.3125"/>
<use xlink:href="#glyph-0-5" x="67" y="30.3125"/>
<use xlink:href="#glyph-0-2" x="73" y="30.3125"/>
<use xlink:href="#glyph-0-6" x="80" y="30.3125"/>
<use xlink:href="#glyph-0-7" x="87" y="30.3125"/>
<use xlink:href="#glyph-0-8" x="94" y="30.3125"/>
<use xlink:href="#glyph-0-9" x="101" y="30.3125"/>
</g>
</svg>
